<svg width="24" height="25" viewBox="0 0 24 25" fill="none" xmlns="http://www.w3.org/2000/svg">
<path d="M9.97517 2.64895C10.0857 1.98594 10.6593 1.5 11.3315 1.5H12.6685C13.3407 1.5 13.9143 1.98594 14.0248 2.64895L14.2069 3.74139C14.2933 4.25994 14.6758 4.6758 15.1613 4.87739C15.647 5.07906 16.2048 5.05213 16.6328 4.74643L17.5342 4.10252C18.0812 3.71184 18.8304 3.77385 19.3057 4.24913L20.2512 5.19458C20.7265 5.66987 20.7885 6.4191 20.3978 6.96606L19.7536 7.86786C19.448 8.2957 19.4211 8.85329 19.6227 9.33888C19.8242 9.82429 20.24 10.2067 20.7584 10.2931L21.851 10.4752C22.5141 10.5857 23 11.1593 23 11.8315V13.1685C23 13.8407 22.5141 14.4143 21.851 14.5248L20.7586 14.7069C20.2401 14.7933 19.8242 15.1758 19.6226 15.6613C19.421 16.147 19.4479 16.7048 19.7536 17.1327L20.3974 18.034C20.788 18.581 20.726 19.3302 20.2508 19.8055L19.3053 20.7509C18.83 21.2262 18.0808 21.2882 17.5338 20.8976L16.6323 20.2536C16.2044 19.948 15.6468 19.9211 15.1612 20.1227C14.6757 20.3242 14.2933 20.74 14.2069 21.2585L14.0248 22.351C13.9143 23.0141 13.3407 23.5 12.6685 23.5H11.3315C10.6593 23.5 10.0857 23.0141 9.97517 22.351L9.7931 21.2586C9.70668 20.7401 9.32422 20.3242 8.83871 20.1226C8.35299 19.921 7.79525 19.9479 7.36729 20.2536L6.46575 20.8975C5.9188 21.2882 5.16956 21.2262 4.69428 20.7509L3.74883 19.8055C3.27354 19.3302 3.21154 18.5809 3.60222 18.034L4.24637 17.1322C4.55197 16.7043 4.57892 16.1467 4.37731 15.6611C4.17578 15.1757 3.76002 14.7933 3.24158 14.7069L2.14895 14.5248C1.48594 14.4143 1 13.8407 1 13.1685V11.8315C1 11.1593 1.48594 10.5857 2.14895 10.4752L3.24138 10.2931C3.75994 10.2067 4.1758 9.82421 4.37739 9.33868C4.57907 8.85295 4.55213 8.29519 4.24644 7.86721L3.6027 6.96598C3.21202 6.41902 3.27402 5.66979 3.74931 5.1945L4.69476 4.24905C5.17004 3.77377 5.91928 3.71176 6.46623 4.10244L7.36774 4.74638C7.79561 5.05199 8.35323 5.07894 8.83885 4.87732C9.32428 4.67579 9.70667 4.26001 9.79307 3.74155L9.97517 2.64895Z" stroke="white" stroke-width="2" stroke-linecap="round" stroke-linejoin="round"/>
<path d="M15.6675 12.5C15.6675 14.5251 14.0259 16.1667 12.0009 16.1667C9.97581 16.1667 8.33419 14.5251 8.33419 12.5C8.33419 10.475 9.97581 8.83336 12.0009 8.83336C14.0259 8.83336 15.6675 10.475 15.6675 12.5Z" stroke="white" stroke-width="2" stroke-linecap="round" stroke-linejoin="round"/>
</svg>
