<svg width="9" height="10" viewBox="0 0 9 10" fill="none" xmlns="http://www.w3.org/2000/svg">
<path d="M3.49979 4.00049C3.77589 4.00049 3.99948 4.22408 3.99948 4.50018V7.00049C3.99948 7.27659 3.77589 7.50018 3.49979 7.50018C3.2237 7.50018 2.99963 7.27659 2.99963 7.00049V4.50018C2.99963 4.22408 3.2237 4.00049 3.49979 4.00049Z" fill="white"/>
<path d="M5.99997 4.50018C5.99997 4.22408 5.77591 4.00049 5.49981 4.00049C5.22372 4.00049 5.00012 4.22408 5.00012 4.50018V7.00049C5.00012 7.27659 5.22372 7.50018 5.49981 7.50018C5.77591 7.50018 5.99997 7.27659 5.99997 7.00049V4.50018Z" fill="white"/>
<path fill-rule="evenodd" clip-rule="evenodd" d="M2.00018 2.00015V1.5C2.00018 0.671722 2.67143 0 3.50017 0H5.49985C6.32859 0 6.99985 0.671722 6.99985 1.5V2.00015H8.49984C8.77594 2.00015 9 2.22422 9 2.50031C9 2.77641 8.77594 3 8.49984 3H8.00015V8.50031C8.00015 9.32858 7.32843 10.0003 6.50015 10.0003H2.49985C1.67157 10.0003 0.999849 9.32858 0.999849 8.50031V3H0.500159C0.224064 3 0 2.77641 0 2.50031C0 2.22422 0.224064 2.00015 0.500159 2.00015H2.00018ZM6.00001 1.5V2.00015H3.00002V1.5C3.00002 1.2239 3.22408 1.00031 3.50017 1.00031H5.49985C5.77594 1.00031 6.00001 1.2239 6.00001 1.5ZM2.00018 2.99999V8.5003C2.00018 8.77639 2.22377 8.99999 2.49987 8.99999H6.50018C6.77627 8.99999 6.99987 8.77639 6.99987 8.5003V2.99999H2.00018Z" fill="white"/>
</svg>
